<svg xmlns="http://www.w3.org/2000/svg" version="1.1" xmlns:xlink="http://www.w3.org/1999/xlink" width="512" height="512"><svg xmlns="http://www.w3.org/2000/svg" version="1.1" xmlns:xlink="http://www.w3.org/1999/xlink" width="512" height="512"><svg version="1.1" xmlns="http://www.w3.org/2000/svg" width="512" height="512" viewBox="4094 1511 2055 2568" preserveAspectRatio="xMidYMid meet">
<g transform="translate(0,5590) scale(1,-1)" fill="#E9A033" stroke="none">
<path d="M 6021.0,4008.0 C 6046.0,3994.0 6067.0,3971.0 6080.0,3944.0 C 6100.0,3903.0 6101.0,3889.0 6098.0,3064.0 L 6095.0,2225.0 L 6072.0,2168.0 C 6044.0,2098.0 5988.0,2022.0 5935.0,1980.0 L 5895.0,1948.0 L 5889.0,2507.0 C 5885.0,2928.0 5881.0,3075.0 5871.0,3105.0 C 5809.0,3293.0 5664.0,3422.0 5482.0,3451.0 C 5260.0,3487.0 5040.0,3354.0 4957.0,3133.0 C 4935.0,3076.0 4935.0,3062.0 4930.0,2465.0 L 4925.0,1855.0 L 4893.0,1788.0 C 4831.0,1657.0 4707.0,1571.0 4565.0,1562.0 C 4364.0,1549.0 4192.0,1682.0 4151.0,1881.0 C 4117.0,2045.0 4217.0,2234.0 4377.0,2307.0 C 4451.0,2341.0 4575.0,2350.0 4644.0,2327.0 L 4689.0,2311.0 L 4692.0,2953.0 C 4695.0,3557.0 4696.0,3597.0 4714.0,3630.0 C 4739.0,3678.0 4778.0,3718.0 4820.0,3740.0 C 4839.0,3749.0 5017.0,3798.0 5215.0,3848.0 C 5413.0,3898.0 5652.0,3959.0 5745.0,3984.0 C 5839.0,4008.0 5930.0,4029.0 5949.0,4029.0 C 5967.0,4030.0 6000.0,4020.0 6021.0,4008.0 M 5542.0,3223.0 C 5620.0,3180.0 5676.0,3101.0 5687.0,3019.0 L 5693.0,2980.0 L 5411.0,2980.0 L 5130.0,2980.0 L 5130.0,3004.0 C 5130.0,3063.0 5180.0,3153.0 5235.0,3196.0 C 5326.0,3265.0 5446.0,3275.0 5542.0,3223.0 M 5206.0,2860.0 C 5217.0,2860.0 5220.0,2843.0 5220.0,2790.0 L 5220.0,2720.0 L 5175.0,2720.0 L 5130.0,2720.0 L 5130.0,2796.0 L 5130.0,2873.0 L 5161.0,2866.0 C 5178.0,2863.0 5199.0,2860.0 5206.0,2860.0 M 5540.0,2790.0 L 5540.0,2720.0 L 5410.0,2720.0 L 5280.0,2720.0 L 5280.0,2790.0 L 5280.0,2860.0 L 5410.0,2860.0 L 5540.0,2860.0 L 5540.0,2790.0 M 5690.0,2790.0 L 5690.0,2720.0 L 5645.0,2720.0 L 5600.0,2720.0 L 5600.0,2790.0 L 5600.0,2860.0 L 5645.0,2860.0 L 5690.0,2860.0 L 5690.0,2790.0 M 5220.0,2418.0 C 5220.0,2252.0 5223.0,2219.0 5239.0,2185.0 C 5261.0,2137.0 5293.0,2106.0 5343.0,2085.0 C 5378.0,2071.0 5380.0,2067.0 5380.0,2025.0 C 5380.0,1981.0 5379.0,1980.0 5353.0,1986.0 C 5303.0,1998.0 5228.0,2044.0 5194.0,2083.0 C 5138.0,2150.0 5130.0,2189.0 5130.0,2412.0 L 5130.0,2610.0 L 5175.0,2610.0 L 5220.0,2610.0 L 5220.0,2418.0 M 5690.0,2412.0 C 5690.0,2185.0 5682.0,2148.0 5619.0,2077.0 C 5582.0,2034.0 5525.0,2000.0 5468.0,1986.0 C 5441.0,1980.0 5440.0,1981.0 5440.0,2025.0 C 5440.0,2067.0 5442.0,2071.0 5477.0,2085.0 C 5527.0,2106.0 5559.0,2137.0 5581.0,2185.0 C 5597.0,2219.0 5600.0,2252.0 5600.0,2418.0 L 5600.0,2610.0 L 5645.0,2610.0 L 5690.0,2610.0 L 5690.0,2412.0 M 5455.0,2295.0 C 5518.0,2232.0 5437.0,2135.0 5367.0,2190.0 C 5313.0,2233.0 5346.0,2316.0 5418.0,2319.0 C 5425.0,2320.0 5442.0,2309.0 5455.0,2295.0"></path>
</g>
</svg></svg><style>@media (prefers-color-scheme: light) { :root { filter: none; } }
@media (prefers-color-scheme: dark) { :root { filter: none; } }
</style></svg>